<svg xmlns="http://www.w3.org/2000/svg" width="72" height="72" viewBox="0 0 72 72"><defs><style>.a{fill:#3c79f9;}.b{fill:#fff;}</style></defs><g transform="translate(-647 -2432)"><g transform="translate(-78 -519)"><circle class="a" cx="36" cy="36" r="36" transform="translate(725 2951)"/><path class="b" d="M15.12-166.927a1.43,1.43,0,0,1-1.113-.484,1.676,1.676,0,0,1-.435-1.161,5.714,5.714,0,0,1,.29-1.548l5.031-12.965a4.784,4.784,0,0,1,1.064-1.693,2.5,2.5,0,0,1,1.742-.532h3a1.426,1.426,0,0,1,1.209.581,1.7,1.7,0,0,1,.242,1.451l-2.129,13.545q-.29,2.806-2.709,2.806Zm15.19,0a1.43,1.43,0,0,1-1.113-.484,1.676,1.676,0,0,1-.435-1.161,5.714,5.714,0,0,1,.29-1.548l5.031-12.965a4.784,4.784,0,0,1,1.064-1.693,2.5,2.5,0,0,1,1.742-.532h3a1.426,1.426,0,0,1,1.209.581,1.7,1.7,0,0,1,.242,1.451l-2.129,13.545q-.29,2.806-2.709,2.806Z" transform="translate(732.875 3163.885)"/></g></g></svg>