<svg xmlns="http://www.w3.org/2000/svg" xmlns:xlink="http://www.w3.org/1999/xlink" width="1366" height="476" viewBox="0 0 1366 476"><defs><style>.a{fill:#fff;stroke:#707070;}.b{fill:#172b5a;}.c{fill:#f9fafb;}.d{clip-path:url(#a);}.e{opacity:0.092;clip-path:url(#b);}.f,.g,.h,.i,.j{opacity:0.514;}.f{fill:url(#c);}.g{fill:url(#d);}.h{fill:url(#e);}.i{fill:url(#f);}.j{fill:url(#g);}</style><clipPath id="a"><rect class="a" width="581" height="476" transform="translate(0 4943)"/></clipPath><clipPath id="b"><path class="b" d="M0,57.234,917.5,0V423.532L0,480.766Z" transform="translate(0 3780)"/></clipPath><linearGradient id="c" y1="1" x2="1" y2="0.68" gradientUnits="objectBoundingBox"><stop offset="0" stop-color="#172b5a" stop-opacity="0"/><stop offset="0.189" stop-color="#1e3a78" stop-opacity="0"/><stop offset="1" stop-color="#3c79f9"/></linearGradient><linearGradient id="d" y1="0.424" x2="1" y2="0.093" gradientUnits="objectBoundingBox"><stop offset="0" stop-color="#172b5a" stop-opacity="0"/><stop offset="1" stop-color="#3c79f9"/></linearGradient><linearGradient id="e" x1="0.536" y1="0.792" x2="0.992" y2="0.608" xlink:href="#d"/><linearGradient id="f" x1="-0.009" y1="0.639" y2="0.238" xlink:href="#d"/><linearGradient id="g" x1="0.163" y1="0.598" y2="0.238" xlink:href="#d"/></defs><g transform="translate(0 -4943)"><rect class="c" width="1366" height="470" transform="translate(0 4943)"/><g class="d"><g class="e" transform="translate(-381.501 1163)"><g transform="translate(-494.349 3740.363)"><path class="f" d="M0,73.5,687.955-50V216.752L0,340.249Z" transform="translate(655.55 193.066)"/><path class="g" d="M0,73.5,687.955-50V216.752L0,340.249Z" transform="translate(869.812 50)"/><path class="h" d="M0,73.5,687.955-50V142.869L0,266.365Z" transform="translate(351.283 150.079)"/><path class="i" d="M0,73.5,687.955-50V142.869L0,266.365Z" transform="translate(0 214.559)"/><path class="j" d="M0,73.5,687.955-50V142.869L0,266.365Z" transform="translate(182.022 282.398)"/></g></g></g></g></svg>