<svg xmlns="http://www.w3.org/2000/svg" xmlns:xlink="http://www.w3.org/1999/xlink" width="1368" height="880" viewBox="0 0 1368 880"><defs><style>.a{fill:#fff;stroke:#707070;}.b{clip-path:url(#a);}.c{fill:#376ee6;}.d,.e{opacity:0.514;}.d{fill:url(#b);}.e{fill:url(#d);}.f{opacity:0.559;fill:url(#f);}</style><clipPath id="a"><rect class="a" width="1368" height="880" transform="translate(-2)"/></clipPath><linearGradient id="b" x1="1" y1="0.319" x2="0.238" y2="0.555" gradientUnits="objectBoundingBox"><stop offset="0" stop-color="#01cadb"/><stop offset="1" stop-color="#3c79f9"/></linearGradient><linearGradient id="d" x1="1" y1="0.319" x2="0.238" y2="0.555" gradientUnits="objectBoundingBox"><stop offset="0" stop-color="#01cadb"/><stop offset="1" stop-color="#3c79f9" stop-opacity="0.251"/></linearGradient><linearGradient id="f" x1="-1.399" y1="1.149" x2="0.977" y2="0.443" gradientUnits="objectBoundingBox"><stop offset="0" stop-color="#172b5a"/><stop offset="1" stop-color="#3c79f9"/></linearGradient></defs><g class="b" transform="translate(2)"><path class="c" d="M0,0H1366V752.679L0,843Z"/><path class="d" d="M0,133.865,1024.246-50V347.148L0,531.013Z" transform="translate(585 -108.013)"/><path class="d" d="M0,133.865,1024.246-50V347.148L0,531.013Z" transform="translate(-49 -258.013)"/><path class="e" d="M0,133.865,1024.246-50V237.148L0,421.013Z" transform="translate(342 213.987)"/><path class="e" d="M0,133.865,1024.246-50V237.148L0,421.013Z" transform="translate(-292 63.987)"/><path class="f" d="M0-50l767-50V58L0,108Z" transform="translate(0 735)"/></g></svg>