<svg xmlns="http://www.w3.org/2000/svg" xmlns:xlink="http://www.w3.org/1999/xlink" width="710.596" height="631.135" viewBox="0 0 710.596 631.135"><defs><style>.a{fill:#262626;opacity:0.2;}.b{clip-path:url(#a);}.c{fill:#ff6c54;}.d{fill:#3b4fb1;}.e{fill:#006146;}.f{fill:#72c81e;}.g{fill:#19a220;}.h{fill:#383838;opacity:0.6;}.i{fill:#3757b1;}.j,.s{fill:none;stroke-miterlimit:10;}.j{stroke:#006146;stroke-linecap:round;stroke-linejoin:round;stroke-width:2px;}.k{fill:#3d4bb1;}.l{fill:#3953b1;}.m{fill:#3f46b1;}.n{fill:#355ab1;}.o{fill:url(#b);}.p{fill:#322f49;}.q{fill:#454062;}.r{clip-path:url(#c);}.s{stroke:#abaec7;}.t{fill:#53537c;}.u{fill:#484574;}.v{fill:#35325e;}.w{fill:#56598d;}.x{fill:url(#d);}.y{fill:url(#e);}.z{fill:url(#f);}.aa{fill:url(#g);}.ab{fill:url(#h);}.ac{fill:url(#i);}.ad{fill:url(#j);}.ae{fill:url(#k);}.af{fill:url(#l);}.ag{clip-path:url(#m);}.ah{fill:url(#n);}.ai{fill:url(#o);}.aj{fill:url(#p);}.ak{fill:url(#q);}.al{fill:url(#r);}.am{fill:url(#s);}.an{fill:#465fae;}.ao{fill:#ffe026;}.ap{fill:#ffde26;}.aq{fill:#4885ca;}.ar{fill:#000b36;}.as{fill:#fff;}</style><clipPath id="a"><path class="a" d="M2777.63,306.433,2801.6,754.669,2132.489,796.32l9.324-255.786,136.612-197.769,297.449-108.617Z" transform="translate(-1436)"/></clipPath><linearGradient id="b" y1="0.5" x2="1" y2="0.5" gradientUnits="objectBoundingBox"><stop offset="0" stop-color="#ffa340"/><stop offset="1" stop-color="#fcd224"/></linearGradient><clipPath id="c"><path d="M137.441,254.159l-7.387,14.677s-7.435,7.073-7.242,12.963c.314,9.9,30.585,3.4,33.313-4.756s5.166-10.09,5.166-10.09,4.949-3.259,4.949-8.69l.048-18.153C166.239,240.11,157.863,250.225,137.441,254.159Z" transform="translate(-122.808 -240.11)"/></clipPath><linearGradient id="d" x1="0.5" y1="3.047" x2="0.5" y2="-1.76" xlink:href="#b"/><linearGradient id="e" x1="0.5" y1="4.804" x2="0.5" y2="-0.003" xlink:href="#b"/><linearGradient id="f" x1="0.5" y1="3.505" x2="0.5" y2="-6.741" xlink:href="#b"/><linearGradient id="g" x1="0.5" y1="1.238" x2="0.5" y2="-4.877" xlink:href="#b"/><linearGradient id="h" x1="0.5" y1="4.033" x2="0.5" y2="-9.003" xlink:href="#b"/><linearGradient id="i" x1="0.499" y1="5.237" x2="0.499" y2="-1.436" xlink:href="#b"/><linearGradient id="j" x1="0.5" y1="5.216" x2="0.5" y2="-1.669" xlink:href="#b"/><linearGradient id="k" x1="0.5" y1="5.216" x2="0.5" y2="-1.67" xlink:href="#b"/><linearGradient id="l" x1="0.5" y1="1" x2="0.5" gradientUnits="objectBoundingBox"><stop offset="0.001" stop-color="#e8e8e9"/><stop offset="1" stop-color="#fff"/></linearGradient><clipPath id="m"><path d="M150.2,169.813C178.08,116.465,160.844,58.24,160.844,58.24H123.211C97.768,122.813,150.2,169.813,150.2,169.813Z" transform="translate(-116.244 -58.24)"/></clipPath><linearGradient id="n" x1="0.5" y1="0.836" x2="0.5" y2="-0.163" gradientUnits="objectBoundingBox"><stop offset="0" stop-color="#ea80b2"/><stop offset="1" stop-color="#f8bbd0"/></linearGradient><linearGradient id="o" x1="0" y1="0.5" x2="1" y2="0.5" xlink:href="#l"/><linearGradient id="p" x1="0" y1="0.5" x2="1" y2="0.5" xlink:href="#l"/><linearGradient id="q" x1="0.5" y1="1.001" x2="0.5" y2="-0.001" gradientUnits="objectBoundingBox"><stop offset="0" stop-color="#f8bbd0"/><stop offset="1" stop-color="#ea80b2"/></linearGradient><linearGradient id="r" x1="0.5" y1="1" x2="0.5" y2="0.001" xlink:href="#l"/><linearGradient id="s" x1="0.5" y1="1" x2="0.5" y2="0.001" xlink:href="#l"/></defs><g transform="translate(-655 -219)"><g class="b"><g transform="translate(1103.524 384.05) rotate(3)"><path class="c" d="M50.434,106.957l.083-25.517L71.323,38.707,61.537,18.1l-9.09-2.719-5.863,5.24,4.472,22.85L38.21,58.922" transform="translate(1.44 0.58)"/><path class="c" d="M50.938,105.489l-26.1.135V83.5l7.783-25.9L48.23,54.32Z" transform="translate(0.936 2.048)"/><g transform="translate(10.118 105.472)"><rect class="a" width="35.977" height="289.639" transform="translate(6.662 14.082)"/><rect class="d" width="49.311" height="14.082"/></g><g transform="translate(0.004 -0.001)"><rect class="e" width="100.636" height="49.633" transform="translate(10.746) rotate(12.503)"/><path class="f" d="M85.505,60.162,15.326,44.6a7.835,7.835,0,0,0-5.946-9.35l4.763-21.491a7.089,7.089,0,0,0,8.468-5.4l70.9,15.721a7.822,7.822,0,0,0,5.946,9.339L94.845,54.2a7.8,7.8,0,0,0-5.9,1.038A7.932,7.932,0,0,0,85.505,60.162Z" transform="translate(0.35 0.316)"/><circle class="g" cx="16.479" cy="16.479" r="16.479" transform="translate(37.551 18.015)"/><circle class="g" cx="3.58" cy="3.58" r="3.58" transform="translate(16.734 23.442)"/><circle class="g" cx="3.58" cy="3.58" r="3.58" transform="translate(85.648 38.717)"/></g><rect class="e" width="100.636" height="49.633" transform="translate(4.182 10.304)"/><path class="f" d="M90.216,52.5H18.335A7.841,7.841,0,0,0,10.5,44.668V22.648a7.1,7.1,0,0,0,7.1-7.1H90.216a7.83,7.83,0,0,0,7.835,7.835V44.668a7.855,7.855,0,0,0-5.541,2.293A7.775,7.775,0,0,0,90.216,52.5Z" transform="translate(0.396 0.586)"/><circle class="g" cx="16.479" cy="16.479" r="16.479" transform="translate(37.43 18.129)"/><circle class="g" cx="3.58" cy="3.58" r="3.58" transform="translate(20.982 31.027)"/><circle class="g" cx="3.58" cy="3.58" r="3.58" transform="translate(86.378 31.027)"/><g transform="translate(43.147 22.767)"><path class="e" d="M59.906,45.631H44.776a3.2,3.2,0,0,1-3.2-3.2V30.543a1.022,1.022,0,0,1,.4-.82l9.734-7.565a1.043,1.043,0,0,1,1.276,0l9.734,7.565a1.053,1.053,0,0,1,.4.82V42.435A3.238,3.238,0,0,1,59.906,45.631Zm-16.25-14.58V42.435a1.123,1.123,0,0,0,1.121,1.121h15.13a1.123,1.123,0,0,0,1.121-1.121V31.051l-8.7-6.755Z" transform="translate(-41.58 -21.94)"/><g transform="translate(6.486 10.802)"><path class="e" d="M55.353,45.238A1.041,1.041,0,0,1,54.316,44.2V34.425h-4.41V44.2a1.038,1.038,0,1,1-2.075,0V33.388a1.041,1.041,0,0,1,1.038-1.038h6.486a1.041,1.041,0,0,1,1.038,1.038V44.2A1.041,1.041,0,0,1,55.353,45.238Z" transform="translate(-47.83 -32.35)"/></g></g><line class="c" y2="22.124" transform="translate(39.899 85.548)"/><line class="c" y1="2.096" x2="5.261" transform="translate(35.053 59.647)"/><path class="h" d="M98.607,57.77,51.07,58.3l45.254,9.775Z" transform="translate(1.925 2.178)"/><path class="h" d="M0,47.349,4.182,29.49V48.272Z" transform="translate(0 1.112)"/><path class="h" d="M8.15,10.3,10.443,0,56.911,10.3Z" transform="translate(0.307 0)"/><path class="h" d="M105.192,21.034,101.01,20.1l.145,19.135Z" transform="translate(3.808 0.758)"/><path class="c" d="M25.429,83.6c1.608-9.765-14.434-24.012-14.434-24.012a4.448,4.448,0,0,1-1.214-5.7h0a4.454,4.454,0,0,1,6.06-1.743l9.941,4.3,20.972,6.766" transform="translate(0.348 1.945)"/><path class="c" d="M42.773,17.913h-.737a3.2,3.2,0,0,1-3.2-3.2V8.926a3.2,3.2,0,0,1,3.2-3.2h.737a3.2,3.2,0,0,1,3.2,3.2v5.8A3.189,3.189,0,0,1,42.773,17.913Z" transform="translate(1.464 0.216)"/><path class="c" d="M33.453,17.913h-.737a3.2,3.2,0,0,1-3.2-3.2V8.926a3.2,3.2,0,0,1,3.2-3.2h.737a3.2,3.2,0,0,1,3.2,3.2v5.8A3.189,3.189,0,0,1,33.453,17.913Z" transform="translate(1.113 0.216)"/><path class="c" d="M51.383,17.913h-.737a3.2,3.2,0,0,1-3.2-3.2V8.926a3.2,3.2,0,0,1,3.2-3.2h.737a3.2,3.2,0,0,1,3.2,3.2v5.8A3.189,3.189,0,0,1,51.383,17.913Z" transform="translate(1.789 0.216)"/><path class="c" d="M59.6,17.913h-.685a2.967,2.967,0,0,1-2.968-2.968V8.7A2.967,2.967,0,0,1,58.918,5.73H59.6A2.967,2.967,0,0,1,62.571,8.7v6.247A2.967,2.967,0,0,1,59.6,17.913Z" transform="translate(2.109 0.216)"/><path class="c" d="M18.943,53.815V47.35a4.421,4.421,0,0,0-3.767-4.369h0a4.422,4.422,0,0,0-5.054,3.974L9.23,56.814l1.764,3.113" transform="translate(0.348 1.618)"/></g><g transform="translate(843.325 584.582) rotate(-8)"><path class="c" d="M49.99,103.63l.08-24.59L70.12,37.86,60.69,18l-8.76-2.62-5.65,5.05,4.31,22.02L38.21,57.34"/><path class="c" d="M49.99,103.63l-25.15.13V82.44l7.5-24.96,15.04-3.16Z"/><rect class="a" width="34.67" height="146.13" transform="translate(16.17 115.21)"/><rect class="i" width="47.52" height="13.57" transform="translate(9.75 101.64)"/><rect class="e" width="96.98" height="47.83" transform="translate(10.359 -0.001) rotate(12.503)"/><path class="f" d="M82.74,58.28l-67.63-15a7.55,7.55,0,0,0-5.73-9.01l4.59-20.71a6.832,6.832,0,0,0,8.16-5.2L90.45,23.51a7.538,7.538,0,0,0,5.73,9L91.74,52.53a7.517,7.517,0,0,0-5.69,1A7.644,7.644,0,0,0,82.74,58.28Z"/><circle class="g" cx="15.88" cy="15.88" r="15.88" transform="translate(36.19 17.36)"/><circle class="g" cx="3.45" cy="3.45" r="3.45" transform="translate(16.13 22.59)"/><circle class="g" cx="3.45" cy="3.45" r="3.45" transform="translate(82.54 37.31)"/><rect class="e" width="96.98" height="47.83" transform="translate(4.03 9.93)"/><path class="f" d="M87.32,51.16H18.05a7.556,7.556,0,0,0-7.55-7.55V22.39a6.841,6.841,0,0,0,6.84-6.84H87.32a7.545,7.545,0,0,0,7.55,7.55V43.61a7.57,7.57,0,0,0-5.34,2.21A7.493,7.493,0,0,0,87.32,51.16Z"/><circle class="g" cx="15.88" cy="15.88" r="15.88" transform="translate(36.07 17.47)"/><circle class="g" cx="3.45" cy="3.45" r="3.45" transform="translate(20.22 29.9)"/><circle class="g" cx="3.45" cy="3.45" r="3.45" transform="translate(83.24 29.9)"/><line class="c" y2="21.32" transform="translate(38.45 82.44)"/><line class="c" y1="2.02" x2="5.07" transform="translate(33.78 57.48)"/><path class="h" d="M96.88,57.77l-45.81.51L94.68,67.7Z"/><path class="h" d="M0,46.7,4.03,29.49v18.1Z"/><path class="h" d="M8.15,9.93,10.36,0,55.14,9.93Z"/><path class="h" d="M105.04,21l-4.03-.9.14,18.44Z"/><path class="c" d="M24.84,82.44C26.39,73.03,10.93,59.3,10.93,59.3a4.287,4.287,0,0,1-1.17-5.49h0a4.292,4.292,0,0,1,5.84-1.68l9.58,4.14,20.21,6.52"/><path class="c" d="M42.63,17.47h-.71a3.081,3.081,0,0,1-3.08-3.08V8.81a3.081,3.081,0,0,1,3.08-3.08h.71a3.081,3.081,0,0,1,3.08,3.08V14.4A3.073,3.073,0,0,1,42.63,17.47Z"/><path class="c" d="M33.31,17.47H32.6a3.081,3.081,0,0,1-3.08-3.08V8.81A3.081,3.081,0,0,1,32.6,5.73h.71a3.081,3.081,0,0,1,3.08,3.08V14.4A3.073,3.073,0,0,1,33.31,17.47Z"/><path class="c" d="M51.24,17.47h-.71a3.081,3.081,0,0,1-3.08-3.08V8.81a3.081,3.081,0,0,1,3.08-3.08h.71a3.081,3.081,0,0,1,3.08,3.08V14.4A3.073,3.073,0,0,1,51.24,17.47Z"/><path class="c" d="M59.47,17.47h-.66a2.859,2.859,0,0,1-2.86-2.86V8.59a2.859,2.859,0,0,1,2.86-2.86h.66a2.859,2.859,0,0,1,2.86,2.86v6.02A2.859,2.859,0,0,1,59.47,17.47Z"/><path class="c" d="M18.59,53.42V47.19a4.26,4.26,0,0,0-3.63-4.21h0a4.261,4.261,0,0,0-4.87,3.83l-.86,9.5,1.7,3"/><path class="j" d="M66.93,28.9a.262.262,0,0,0-.04-.28.253.253,0,0,0-.27-.08c-4.52,1.38-9.45,4.2-12.42,8.1h-.03c1.74-6.07.61-13.35-1.77-19.04a.249.249,0,0,0-.18-.15.2.2,0,0,0-.08-.01.279.279,0,0,0-.24.15,34.408,34.408,0,0,0-2.29,6.82c-.03.13-.06.26-.08.4-.08.4-.17.8-.24,1.2-.06.35-.12.71-.17,1.07-.03.23-.06.46-.09.7-.02.2-.05.4-.07.6-.08.76-.15,1.53-.18,2.3a22.693,22.693,0,0,0,.63,5.89H49.4c-2.82-3.97-7.62-7-12.13-8.56a.268.268,0,0,0-.27.07.259.259,0,0,0-.05.28c1.78,4.16,4.97,8.66,9.06,11.22a15.119,15.119,0,0,0-5.73.85c-.09.03-.18.06-.27.1-.22.08-.43.16-.65.24-.1.04-.2.09-.29.13-.22.09-.43.18-.65.28a.427.427,0,0,0-.13.14.407.407,0,0,0-.05.18.389.389,0,0,0,.16.32,16.277,16.277,0,0,0,7.29,1.88,8.017,8.017,0,0,0,1.55-.1.127.127,0,0,0,.06-.01,9.922,9.922,0,0,0-1.41,3.43.291.291,0,0,0,.1.26.266.266,0,0,0,.27.04c2.74-.8,5.15-2.73,5.42-5.56h0c.14,2.84,2.5,4.86,5.19,5.78a.264.264,0,0,0,.27-.03.271.271,0,0,0,.11-.25,9.858,9.858,0,0,0-1.27-3.48,15.474,15.474,0,0,0,8.96-1.43.376.376,0,0,0,.16-.23.425.425,0,0,0,.02-.11.413.413,0,0,0-.18-.33A16.349,16.349,0,0,0,57.4,39.8C61.55,37.39,64.95,33.02,66.93,28.9Z"/><line class="j" y2="7.53" transform="translate(51.69 41.74)"/></g><g transform="translate(1161.688 497.101) rotate(3)"><path class="c" d="M49.99,103.63l.08-24.59L70.12,37.86,60.69,18l-8.76-2.62-5.65,5.05,4.31,22.02L38.21,57.34"/><path class="c" d="M49.99,103.63l-25.15.13V82.44l7.5-24.96,15.04-3.16Z"/><rect class="a" width="34.67" height="184.13" transform="translate(16.17 115.21)"/><rect class="k" width="47.52" height="13.57" transform="translate(9.75 101.64)"/><rect class="e" width="96.98" height="47.83" transform="translate(10.359 -0.001) rotate(12.503)"/><path class="f" d="M82.74,58.28l-67.63-15a7.55,7.55,0,0,0-5.73-9.01l4.59-20.71a6.832,6.832,0,0,0,8.16-5.2L90.45,23.51a7.538,7.538,0,0,0,5.73,9L91.74,52.53a7.517,7.517,0,0,0-5.69,1A7.644,7.644,0,0,0,82.74,58.28Z"/><circle class="g" cx="15.88" cy="15.88" r="15.88" transform="translate(36.19 17.36)"/><circle class="g" cx="3.45" cy="3.45" r="3.45" transform="translate(16.13 22.59)"/><circle class="g" cx="3.45" cy="3.45" r="3.45" transform="translate(82.54 37.31)"/><rect class="e" width="96.98" height="47.83" transform="translate(4.03 9.93)"/><path class="f" d="M87.32,51.16H18.05a7.556,7.556,0,0,0-7.55-7.55V22.39a6.841,6.841,0,0,0,6.84-6.84H87.32a7.545,7.545,0,0,0,7.55,7.55V43.61a7.57,7.57,0,0,0-5.34,2.21A7.493,7.493,0,0,0,87.32,51.16Z"/><circle class="g" cx="15.88" cy="15.88" r="15.88" transform="translate(36.07 17.47)"/><circle class="g" cx="3.45" cy="3.45" r="3.45" transform="translate(20.22 29.9)"/><circle class="g" cx="3.45" cy="3.45" r="3.45" transform="translate(83.24 29.9)"/><line class="c" y2="21.32" transform="translate(38.45 82.44)"/><line class="c" y1="2.02" x2="5.07" transform="translate(33.78 57.48)"/><path class="h" d="M96.88,57.77l-45.81.51L94.68,67.7Z"/><path class="h" d="M0,46.7,4.03,29.49v18.1Z"/><path class="h" d="M8.15,9.93,10.36,0,55.14,9.93Z"/><path class="c" d="M24.84,82.44C26.39,73.03,10.93,59.3,10.93,59.3a4.287,4.287,0,0,1-1.17-5.49h0a4.292,4.292,0,0,1,5.84-1.68l9.58,4.14,20.21,6.52"/><path class="c" d="M42.63,17.47h-.71a3.081,3.081,0,0,1-3.08-3.08V8.81a3.081,3.081,0,0,1,3.08-3.08h.71a3.081,3.081,0,0,1,3.08,3.08V14.4A3.073,3.073,0,0,1,42.63,17.47Z"/><path class="c" d="M33.31,17.47H32.6a3.081,3.081,0,0,1-3.08-3.08V8.81A3.081,3.081,0,0,1,32.6,5.73h.71a3.081,3.081,0,0,1,3.08,3.08V14.4A3.073,3.073,0,0,1,33.31,17.47Z"/><path class="c" d="M51.24,17.47h-.71a3.081,3.081,0,0,1-3.08-3.08V8.81a3.081,3.081,0,0,1,3.08-3.08h.71a3.081,3.081,0,0,1,3.08,3.08V14.4A3.073,3.073,0,0,1,51.24,17.47Z"/><path class="c" d="M59.47,17.47h-.66a2.859,2.859,0,0,1-2.86-2.86V8.59a2.859,2.859,0,0,1,2.86-2.86h.66a2.859,2.859,0,0,1,2.86,2.86v6.02A2.859,2.859,0,0,1,59.47,17.47Z"/><path class="c" d="M18.59,53.42V47.19a4.26,4.26,0,0,0-3.63-4.21h0a4.261,4.261,0,0,0-4.87,3.83l-.86,9.5,1.7,3"/><path class="j" d="M53.59,19.96,65.34,31.71a2.33,2.33,0,0,1,0,3.28L53.59,46.74a2.33,2.33,0,0,1-3.28,0L38.56,34.99a2.33,2.33,0,0,1,0-3.28L50.31,19.96A2.33,2.33,0,0,1,53.59,19.96Z"/><line class="j" x1="15.03" y2="15.03" transform="translate(40.68 22.08)"/><line class="j" x1="15.03" y2="15.03" transform="translate(48.19 29.59)"/><line class="j" x2="15.03" y2="15.03" transform="translate(44.44 25.84)"/><line class="j" x2="3.76" y2="3.76" transform="translate(48.19 22.08)"/><line class="j" x2="3.76" y2="3.76" transform="translate(40.68 29.59)"/><line class="j" x2="3.76" y2="3.75" transform="translate(51.95 40.87)"/><line class="j" x2="3.75" y2="3.76" transform="translate(59.47 33.35)"/></g><g transform="translate(1042.283 539.911) rotate(3)"><path class="c" d="M49.99,103.63l.08-24.59L70.12,37.86,60.69,18l-8.76-2.62-5.65,5.05,4.31,22.02L38.21,57.34"/><path class="c" d="M49.99,103.63l-25.15.13V82.44l7.5-24.96,15.04-3.16Z"/><rect class="a" width="34.67" height="146.13" transform="translate(16.17 115.21)"/><rect class="l" width="47.52" height="13.57" transform="translate(9.75 101.64)"/><rect class="e" width="96.98" height="47.83" transform="translate(10.359 -0.001) rotate(12.503)"/><path class="f" d="M82.74,58.28l-67.63-15a7.55,7.55,0,0,0-5.73-9.01l4.59-20.71a6.832,6.832,0,0,0,8.16-5.2L90.45,23.51a7.538,7.538,0,0,0,5.73,9L91.74,52.53a7.517,7.517,0,0,0-5.69,1A7.644,7.644,0,0,0,82.74,58.28Z"/><circle class="g" cx="15.88" cy="15.88" r="15.88" transform="translate(36.19 17.36)"/><circle class="g" cx="3.45" cy="3.45" r="3.45" transform="translate(16.13 22.59)"/><circle class="g" cx="3.45" cy="3.45" r="3.45" transform="translate(82.54 37.31)"/><rect class="e" width="96.98" height="47.83" transform="translate(4.03 9.93)"/><path class="f" d="M87.32,51.16H18.05a7.556,7.556,0,0,0-7.55-7.55V22.39a6.841,6.841,0,0,0,6.84-6.84H87.32a7.545,7.545,0,0,0,7.55,7.55V43.61a7.57,7.57,0,0,0-5.34,2.21A7.493,7.493,0,0,0,87.32,51.16Z"/><circle class="g" cx="15.88" cy="15.88" r="15.88" transform="translate(36.07 17.47)"/><circle class="g" cx="3.45" cy="3.45" r="3.45" transform="translate(20.22 29.9)"/><circle class="g" cx="3.45" cy="3.45" r="3.45" transform="translate(83.24 29.9)"/><line class="c" y2="21.32" transform="translate(38.45 82.44)"/><line class="c" y1="2.02" x2="5.07" transform="translate(33.78 57.48)"/><path class="h" d="M96.88,57.77l-45.81.51L94.68,67.7Z"/><path class="h" d="M0,46.7,4.03,29.49v18.1Z"/><path class="h" d="M8.15,9.93,10.36,0,55.14,9.93Z"/><path class="h" d="M105.04,21l-4.03-.9.14,18.44Z"/><path class="c" d="M24.84,82.44C26.39,73.03,10.93,59.3,10.93,59.3a4.287,4.287,0,0,1-1.17-5.49h0a4.292,4.292,0,0,1,5.84-1.68l9.58,4.14,20.21,6.52"/><path class="c" d="M42.63,17.47h-.71a3.081,3.081,0,0,1-3.08-3.08V8.81a3.081,3.081,0,0,1,3.08-3.08h.71a3.081,3.081,0,0,1,3.08,3.08V14.4A3.073,3.073,0,0,1,42.63,17.47Z"/><path class="c" d="M33.31,17.47H32.6a3.081,3.081,0,0,1-3.08-3.08V8.81A3.081,3.081,0,0,1,32.6,5.73h.71a3.081,3.081,0,0,1,3.08,3.08V14.4A3.073,3.073,0,0,1,33.31,17.47Z"/><path class="c" d="M51.24,17.47h-.71a3.081,3.081,0,0,1-3.08-3.08V8.81a3.081,3.081,0,0,1,3.08-3.08h.71a3.081,3.081,0,0,1,3.08,3.08V14.4A3.073,3.073,0,0,1,51.24,17.47Z"/><path class="c" d="M59.47,17.47h-.66a2.859,2.859,0,0,1-2.86-2.86V8.59a2.859,2.859,0,0,1,2.86-2.86h.66a2.859,2.859,0,0,1,2.86,2.86v6.02A2.859,2.859,0,0,1,59.47,17.47Z"/><path class="c" d="M18.59,53.42V47.19a4.26,4.26,0,0,0-3.63-4.21h0a4.261,4.261,0,0,0-4.87,3.83l-.86,9.5,1.7,3"/><line class="j" y2="27.68" transform="translate(51.95 19.51)"/><path class="j" d="M58.24,24.55H48.81a4.4,4.4,0,1,0,0,8.8H55.1a4.4,4.4,0,0,1,0,8.8H44.4"/></g><g transform="translate(1209.224 602.734) rotate(3)"><path class="c" d="M49.99,103.63l.08-24.59L70.12,37.86,60.69,18l-8.76-2.62-5.65,5.05,4.31,22.02L38.21,57.34"/><path class="c" d="M49.99,103.63l-25.15.13V82.44l7.5-24.96,15.04-3.16Z"/><rect class="a" width="34.67" height="146.13" transform="translate(16.17 115.21)"/><rect class="m" width="47.52" height="13.57" transform="translate(9.75 101.64)"/><rect class="e" width="96.98" height="47.83" transform="translate(10.359 -0.001) rotate(12.503)"/><path class="f" d="M82.74,58.28l-67.63-15a7.55,7.55,0,0,0-5.73-9.01l4.59-20.71a6.832,6.832,0,0,0,8.16-5.2L90.45,23.51a7.538,7.538,0,0,0,5.73,9L91.74,52.53a7.517,7.517,0,0,0-5.69,1A7.644,7.644,0,0,0,82.74,58.28Z"/><circle class="g" cx="15.88" cy="15.88" r="15.88" transform="translate(36.19 17.36)"/><circle class="g" cx="3.45" cy="3.45" r="3.45" transform="translate(16.13 22.59)"/><circle class="g" cx="3.45" cy="3.45" r="3.45" transform="translate(82.54 37.31)"/><rect class="e" width="96.98" height="47.83" transform="translate(4.03 9.93)"/><path class="f" d="M87.32,51.16H18.05a7.556,7.556,0,0,0-7.55-7.55V22.39a6.841,6.841,0,0,0,6.84-6.84H87.32a7.545,7.545,0,0,0,7.55,7.55V43.61a7.57,7.57,0,0,0-5.34,2.21A7.493,7.493,0,0,0,87.32,51.16Z"/><circle class="g" cx="15.88" cy="15.88" r="15.88" transform="translate(36.07 17.47)"/><circle class="g" cx="3.45" cy="3.45" r="3.45" transform="translate(20.22 29.9)"/><circle class="g" cx="3.45" cy="3.45" r="3.45" transform="translate(83.24 29.9)"/><line class="c" y2="21.32" transform="translate(38.45 82.44)"/><line class="c" y1="2.02" x2="5.07" transform="translate(33.78 57.48)"/><path class="h" d="M96.88,57.77l-45.81.51L94.68,67.7Z"/><path class="h" d="M0,46.7,4.03,29.49v18.1Z"/><path class="h" d="M8.15,9.93,10.36,0,55.14,9.93Z"/><path class="h" d="M105.04,21l-4.03-.9.14,18.44Z"/><path class="c" d="M24.84,82.44C26.39,73.03,10.93,59.3,10.93,59.3a4.287,4.287,0,0,1-1.17-5.49h0a4.292,4.292,0,0,1,5.84-1.68l9.58,4.14,20.21,6.52"/><path class="c" d="M42.63,17.47h-.71a3.081,3.081,0,0,1-3.08-3.08V8.81a3.081,3.081,0,0,1,3.08-3.08h.71a3.081,3.081,0,0,1,3.08,3.08V14.4A3.073,3.073,0,0,1,42.63,17.47Z"/><path class="c" d="M33.31,17.47H32.6a3.081,3.081,0,0,1-3.08-3.08V8.81A3.081,3.081,0,0,1,32.6,5.73h.71a3.081,3.081,0,0,1,3.08,3.08V14.4A3.073,3.073,0,0,1,33.31,17.47Z"/><path class="c" d="M51.24,17.47h-.71a3.081,3.081,0,0,1-3.08-3.08V8.81a3.081,3.081,0,0,1,3.08-3.08h.71a3.081,3.081,0,0,1,3.08,3.08V14.4A3.073,3.073,0,0,1,51.24,17.47Z"/><path class="c" d="M59.47,17.47h-.66a2.859,2.859,0,0,1-2.86-2.86V8.59a2.859,2.859,0,0,1,2.86-2.86h.66a2.859,2.859,0,0,1,2.86,2.86v6.02A2.859,2.859,0,0,1,59.47,17.47Z"/><path class="c" d="M18.59,53.42V47.19a4.26,4.26,0,0,0-3.63-4.21h0a4.261,4.261,0,0,0-4.87,3.83l-.86,9.5,1.7,3"/><line class="j" y2="27.68" transform="translate(51.95 19.51)"/><path class="j" d="M58.24,24.55H48.81a4.4,4.4,0,1,0,0,8.8H55.1a4.4,4.4,0,0,1,0,8.8H44.4"/></g><g transform="matrix(0.978, -0.208, 0.208, 0.978, 758.98, 520.776)"><path class="c" d="M49.99,103.63l.08-24.59L70.12,37.86,60.69,18l-8.76-2.62-5.65,5.05,4.31,22.02L38.21,57.34"/><path class="c" d="M49.99,103.63l-25.15.13V82.44l7.5-24.96,15.04-3.16Z"/><rect class="a" width="34.67" height="203.13" transform="translate(16.17 115.21)"/><rect class="n" width="47.52" height="13.57" transform="translate(9.75 101.64)"/><rect class="e" width="96.98" height="47.83" transform="translate(10.359 -0.001) rotate(12.503)"/><path class="f" d="M82.74,58.28l-67.63-15a7.55,7.55,0,0,0-5.73-9.01l4.59-20.71a6.832,6.832,0,0,0,8.16-5.2L90.45,23.51a7.538,7.538,0,0,0,5.73,9L91.74,52.53a7.517,7.517,0,0,0-5.69,1A7.644,7.644,0,0,0,82.74,58.28Z"/><circle class="g" cx="15.88" cy="15.88" r="15.88" transform="translate(36.19 17.36)"/><circle class="g" cx="3.45" cy="3.45" r="3.45" transform="translate(16.13 22.59)"/><circle class="g" cx="3.45" cy="3.45" r="3.45" transform="translate(82.54 37.31)"/><rect class="e" width="96.98" height="47.83" transform="translate(4.03 9.93)"/><path class="f" d="M87.32,51.16H18.05a7.556,7.556,0,0,0-7.55-7.55V22.39a6.841,6.841,0,0,0,6.84-6.84H87.32a7.545,7.545,0,0,0,7.55,7.55V43.61a7.57,7.57,0,0,0-5.34,2.21A7.493,7.493,0,0,0,87.32,51.16Z"/><circle class="g" cx="15.88" cy="15.88" r="15.88" transform="translate(36.07 17.47)"/><circle class="g" cx="3.45" cy="3.45" r="3.45" transform="translate(20.22 29.9)"/><circle class="g" cx="3.45" cy="3.45" r="3.45" transform="translate(83.24 29.9)"/><line class="c" y2="21.32" transform="translate(38.45 82.44)"/><line class="c" y1="2.02" x2="5.07" transform="translate(33.78 57.48)"/><path class="h" d="M96.88,57.77l-45.81.51L94.68,67.7Z"/><path class="h" d="M0,46.7,4.03,29.49v18.1Z"/><path class="h" d="M8.15,9.93,10.36,0,55.14,9.93Z"/><path class="h" d="M105.04,21l-4.03-.9.14,18.44Z"/><path class="c" d="M24.84,82.44C26.39,73.03,10.93,59.3,10.93,59.3a4.287,4.287,0,0,1-1.17-5.49h0a4.292,4.292,0,0,1,5.84-1.68l9.58,4.14,20.21,6.52"/><path class="c" d="M42.63,17.47h-.71a3.081,3.081,0,0,1-3.08-3.08V8.81a3.081,3.081,0,0,1,3.08-3.08h.71a3.081,3.081,0,0,1,3.08,3.08V14.4A3.073,3.073,0,0,1,42.63,17.47Z"/><path class="c" d="M33.31,17.47H32.6a3.081,3.081,0,0,1-3.08-3.08V8.81A3.081,3.081,0,0,1,32.6,5.73h.71a3.081,3.081,0,0,1,3.08,3.08V14.4A3.073,3.073,0,0,1,33.31,17.47Z"/><path class="c" d="M51.24,17.47h-.71a3.081,3.081,0,0,1-3.08-3.08V8.81a3.081,3.081,0,0,1,3.08-3.08h.71a3.081,3.081,0,0,1,3.08,3.08V14.4A3.073,3.073,0,0,1,51.24,17.47Z"/><path class="c" d="M59.47,17.47h-.66a2.859,2.859,0,0,1-2.86-2.86V8.59a2.859,2.859,0,0,1,2.86-2.86h.66a2.859,2.859,0,0,1,2.86,2.86v6.02A2.859,2.859,0,0,1,59.47,17.47Z"/><path class="c" d="M18.59,53.42V47.19a4.26,4.26,0,0,0-3.63-4.21h0a4.261,4.261,0,0,0-4.87,3.83l-.86,9.5,1.7,3"/><line class="j" y2="27.68" transform="translate(51.95 19.51)"/><path class="j" d="M58.24,24.55H48.81a4.4,4.4,0,1,0,0,8.8H55.1a4.4,4.4,0,0,1,0,8.8H44.4"/></g></g><g transform="translate(655 219)"><path class="o" d="M218.093,77.066h-3.042a10.519,10.519,0,0,1-10.525-10.525v0A10.519,10.519,0,0,1,194,77.066h0a10.519,10.519,0,0,1,10.525,10.525v0a10.519,10.519,0,0,1,10.525-10.525Z" transform="translate(270.009 89.786)"/><path class="p" d="M140.744,261.148s4.949-3.259,4.949-8.69V247.63c0,5.431-8.352,6.759-8.352,6.759v6.759Z" transform="translate(194.193 350.138)"/><path class="p" d="M156.124,255.41c-2.535,7.6-28.967,13.76-32.83,6.566a9.2,9.2,0,0,0-.483,3.017c.314,9.9,30.585,3.4,33.313-4.755Z" transform="translate(173.647 361.139)"/><g transform="translate(296.454 579.615)"><path class="q" d="M137.441,254.159l-7.387,14.677s-7.435,7.073-7.242,12.963c.314,9.9,30.585,3.4,33.313-4.756s5.166-10.09,5.166-10.09,4.949-3.259,4.949-8.69l.048-18.153C166.239,240.11,157.863,250.225,137.441,254.159Z" transform="translate(-122.808 -240.11)"/><g class="r"><path class="p" d="M166.031,238.14s.676,23.44-38.961,22.908l8.835-13.615Z" transform="translate(-116.783 -242.896)"/></g></g><g transform="translate(334.937 611.286)"><path class="s" d="M138.75,253.23" transform="translate(-138.75 -253.23)"/></g><path class="t" d="M176.911,387.063l4.973,12.7c.459,13.591-28.8,14.049-28.8,14.049l-6.083-5,2.7-15.522-14.387-62.884-7.363-32.154a363.327,363.327,0,0,1-16.174-112.346,234.352,234.352,0,0,1,1.666-26.747L147.533,127.2l17.236,67.229,1.593,6.18-.314,4.924-1.062,15.811-4.393,66.939,1.255,5.576,12.6,55.449,7.435,32.782Z" transform="translate(158.001 179.855)"/><path class="q" d="M160.64,251.689,135.9,295.671,121.51,232.787c8.908-12.263,19.167-26.36,26.529-36.547Z" transform="translate(171.81 277.475)"/><path class="u" d="M166.026,205.533l-1.062,15.811-11.9-32.516-41.3-2.921a234.357,234.357,0,0,1,1.666-26.747L147.511,127.2l17.236,67.229Z" transform="translate(158.024 179.855)"/><g transform="translate(267.454 527.184)"><path class="v" d="M112.79,262.358c6.542,17.067,15.642,17.67,15.642,17.67h4.828s-8.376-.917-15.642-17.67c-3.621-8.376-1.81-15.739.1-22.908C117.691,239.426,108.083,250.12,112.79,262.358Z" transform="translate(-109.809 -188.612)"/><path class="v" d="M119.28,247.5a46.147,46.147,0,0,1-2.993-25.853,3.961,3.961,0,0,1,3.911-3.259H115.37a3.923,3.923,0,0,0-3.911,3.259,46.147,46.147,0,0,0,2.993,25.853Z" transform="translate(-110.795 -218.39)"/></g><path class="w" d="M195.375,319.84c-16.994,22.088-62.184,87.675-62.184,87.675S112,380.672,119.528,359.791c2.124-5.938,9.921-1.883,9.921-1.883l44.175-83.933-13.784-51.031-2.2-8.111-13.47-29.257V117.14l18.467,10.235,31.792,17.6,8.328,4.611.459,6.832,2.269,34.785,6.2,94.651S212.369,297.752,195.375,319.84Z" transform="translate(166.719 165.631)"/><path class="u" d="M199,191.158c-15.884,14.846-36.716,9.366-36.716,9.366L147.895,166.2l5.456,56.7.555,5.818L122.5,159.752l15.184-14.629,18.467-17.791,10.525-10.163,21.267,27.761,8.787,11.442Z" transform="translate(173.21 165.673)"/><path class="u" d="M140.918,264.366l-.121,1.569-2.873,37.513a6.908,6.908,0,0,1-6.88,6.349s-8.376-.893-15.618-17.67c-7.266-16.753,7.242-29.45.676-44.634a46.148,46.148,0,0,1-2.993-25.854,3.946,3.946,0,0,1,3.911-3.259h9.68C122.113,239.816,140.918,264.366,140.918,264.366Z" transform="translate(158.992 308.78)"/><path class="x" d="M192.8,55.19h-3.862a13.4,13.4,0,0,1-13.4-13.4v0a13.4,13.4,0,0,1-13.4,13.4h0a13.4,13.4,0,0,1,13.4,13.4v0a13.4,13.4,0,0,1,13.4-13.4Z" transform="translate(223.801 53.631)"/><path class="y" d="M68.87,32.41H65.007a13.4,13.4,0,0,1-13.4-13.4v0a13.4,13.4,0,0,1-13.4,13.4h0a13.4,13.4,0,0,1,13.4,13.4v0a13.4,13.4,0,0,1,13.4-13.4Z" transform="translate(48.569 21.421)"/><path class="z" d="M34.52,24.85H30.657a13.383,13.383,0,0,1-13.4-13.4v0a13.4,13.4,0,0,1-13.4,13.4h0a13.4,13.4,0,0,1,13.4,13.4v0a13.383,13.383,0,0,1,13.4-13.4H34.52Z" transform="translate(0 10.732)"/><path class="aa" d="M235.563,86.876h-3.042A10.519,10.519,0,0,1,222,76.352v0a10.519,10.519,0,0,1-10.525,10.525h0A10.519,10.519,0,0,1,222,97.4v0a10.519,10.519,0,0,1,10.525-10.525Z" transform="translate(294.711 103.657)"/><path class="ab" d="M224.483,24.206h-3.042a10.519,10.519,0,0,1-10.525-10.525v0a10.519,10.519,0,0,1-10.525,10.525h0a10.519,10.519,0,0,1,10.525,10.525v0a10.519,10.519,0,0,1,10.525-10.525Z" transform="translate(279.044 15.045)"/><path class="ac" d="M47.184,91.832H44.408a9.653,9.653,0,0,1-9.656-9.656v0A9.653,9.653,0,0,1,25.1,91.832h0a9.653,9.653,0,0,1,9.656,9.656v0a9.653,9.653,0,0,1,9.656-9.656Z" transform="translate(31.56 112.268)"/><path class="ad" d="M136.979,25.685h-5.745A19.945,19.945,0,0,1,111.295,5.745v0A19.945,19.945,0,0,1,91.355,25.685h0a19.945,19.945,0,0,1,19.939,19.939v0a19.945,19.945,0,0,1,19.939-19.939h5.745Z" transform="translate(121.049)"/><path class="ae" d="M258.559,58.935h-5.745A19.945,19.945,0,0,1,232.875,39v0a19.945,19.945,0,0,1-19.939,19.939h0a19.945,19.945,0,0,1,19.939,19.939v0a19.945,19.945,0,0,1,19.939-19.939Z" transform="translate(292.958 47.014)"/><path class="w" d="M155.428,136.049c-4.973,40.675-24.429,42.1-24.429,42.1H82.7a5.056,5.056,0,0,1-4.755-3.331c9.7-6.373,7.169-27.278,7.169-27.278l27.785,1.3,3.549.169,2.511-6.59,6.59-17.332,7.58-56.68Z" transform="translate(110.204 96.729)"/><g transform="translate(280.608 140.589)"><path class="af" d="M150.2,169.813C178.08,116.465,160.844,58.24,160.844,58.24H123.211C97.768,122.813,150.2,169.813,150.2,169.813Z" transform="translate(-116.244 -58.24)"/><g class="ag"><path class="ah" d="M123.454,66.15s-2.1,46.734,4.876,83.982l12.118,8.5a65.368,65.368,0,0,0,5.093-11.2c1.907-6.518-12.673-81.254-12.673-81.254h-9.414Z" transform="translate(-106.469 -47.056)"/></g></g><path class="ai" d="M122.142,58.24,117,74l17.887-7.869Z" transform="translate(165.433 82.349)"/><path class="aj" d="M124.41,71.28l21.219,7.869L149.3,63.387,144.711,54.6Z" transform="translate(175.91 77.202)"/><path class="w" d="M145.062,58.24,123.626,76.465,100.79,82.79,129.9,171.02s-9.39,55.473-6.976,91.248h48.5l3.331-40.627,17.887,40.627s32.13,5.166,40.313-26.988l-15.111-42.437,15.16-76.4s6.663-32.733,0-56.076L213.908,61.74,182.72,58.264s17.236,58.2-10.646,111.573C172.05,169.813,119.619,122.813,145.062,58.24Z" transform="translate(142.513 82.349)"/><path class="ak" d="M121.52,64.576l4.249,8.135h9.39l3.911-7.29L128.5,61.51Z" transform="translate(171.824 86.972)"/><path class="w" d="M214.692,141.557l-32.564,57.621L160.306,182.5l24.26-42.437-5.142-4.731-7.58-6.18-11.563-9.9L155.55,115.2l.024-.169.024-.193c.29-3.524,2.7-32.516-.048-55.714l58.007,69.715A11.238,11.238,0,0,1,214.692,141.557Z" transform="translate(219.941 83.593)"/><path class="c" d="M119.453,31.38s-8.232,34.809,0,48.641h5.287V96.243l11.828,7.894,19.819-16.68V68.869s5.311-7.435,3.717-13.277-5.842,0-5.842,0V31.38Z" transform="translate(163.728 44.37)"/><path class="v" d="M120.775,39.039h24.381l-.6,2.993a10.979,10.979,0,0,0,5.166,11.611l.459.29V58.4a3.721,3.721,0,0,0,5.576,3.235h0s3.983-5.045,5.842,0c0,0,1.328,5.576-3.717,13.277h0a40.389,40.389,0,0,0,7.7-23.753V41.163s-1.062-14.073-15.16-14.073H120.727a5.986,5.986,0,0,0-5.987,5.987h0A6.054,6.054,0,0,0,120.775,39.039Z" transform="translate(162.237 38.304)"/><path class="u" d="M160.281,109.312l-4.731-4.055.024-.169.024-.193,1.955-13.4.024-.241,3.669-25.105C167.161,89.831,162.961,103.615,160.281,109.312Z" transform="translate(219.941 93.533)"/><path class="al" d="M159.938,110.23l-4.128,6.228,19,14.846,4.442-6.2Z" transform="translate(220.309 155.86)"/><path class="c" d="M165.043,112.81l-15.063,1.062-.7,1.81,7.894,22.112,12.166-6.469a8.032,8.032,0,0,0,2.51-2.076l5.5-6.807Z" transform="translate(211.075 159.508)"/><path class="q" d="M119.273,124.451,103.51,76.63l13.542,60.277Z" transform="translate(146.359 108.352)"/><path class="u" d="M110.57,112.419,93.89,105.66,96.4,99.07Z" transform="translate(132.756 140.081)"/><path class="am" d="M80.372,128.835h0a4.152,4.152,0,0,1-4.152-4.152v-.917s8.69-8.883,4.152-22.836l7.169.6C87.566,101.558,90.993,118.745,80.372,128.835Z" transform="translate(107.772 142.711)"/><path class="c" d="M108.583,123.852C101.9,114.872,79.519,109.73,55.524,105h0a3.5,3.5,0,0,1,2.728-5.818l43.451,1.473a3.947,3.947,0,0,1,4.031,3.959h0l6.131,2.824A21.577,21.577,0,0,1,108.583,123.852Z" transform="translate(77.243 140.235)"/><path class="u" d="M184.05,86.12l-9.028,15.763-5.142-4.731-7.58-6.18L170.073,95Z" transform="translate(229.485 121.77)"/><path class="v" d="M135.289,264.366l-.121,1.569c-18.636-10.356-19.191-36.813-18.612-47.555h4.514C116.484,239.816,135.289,264.366,135.289,264.366Z" transform="translate(164.621 308.78)"/><g transform="translate(99.529 119.215)"><path class="an" d="M117.869,125.079h0a20.03,20.03,0,0,0-3.53,5.423,50.988,50.988,0,0,0-1.535,6.344c-.409,1.612-.384,2.507-2.482,2.814V152.2a1.136,1.136,0,0,1-1.126,1.126l-4.144,4.144H95.689l-4.144-4.144a1.136,1.136,0,0,1-1.126-1.126V139.61c-2.1,0-2.072-1.177-2.481-2.788a52.1,52.1,0,0,0-1.535-6.344,19.643,19.643,0,0,0-3.53-5.423h0a23.32,23.32,0,1,1,35,.026Zm40.215-9.517v2.072l-26.887.179v-2.072Zm-5.116-31.645L129.765,97.5l-1.023-1.791,23.2-13.584ZM128.69,60.33l1.791,1.023-13.3,23.357-1.791-1.023ZM101.215,53.5l.179,26.887-2.072.026-.153-26.887ZM72,60.33,85.3,83.687,83.512,84.71l-13.3-23.357ZM48.771,82.1l23.2,13.584-1.049,1.791-23.2-13.584Zm-6.165,33.462,26.861.179v2.072l-26.887-.179Z" transform="translate(-42.58 -53.5)"/><path class="ao" d="M66.673,75.663a3.62,3.62,0,0,0-.077,2.149c.1.409.384,1.049.793,1.2a.094.094,0,0,0,.077.026A1.219,1.219,0,0,0,68.49,78.5a2.744,2.744,0,0,0,.588-1.791,4.678,4.678,0,0,0-.947-2.558c-.051-.051-.077-.1-.128-.153A3.294,3.294,0,0,0,66.673,75.663Z" transform="translate(-5.353 -21.556)"/><path class="ap" d="M79.381,66.32a23.327,23.327,0,0,0-17.5,38.757h0a20.029,20.029,0,0,1,3.53,5.423,51,51,0,0,1,1.535,6.344c.409,1.612.384,2.788,2.481,2.788h4.963c-2.916-10.873-5.551-20.747-8.468-31.594,1.458-1.561,3.351-3.479,5.5-3.889a5.026,5.026,0,0,1,3.377.588,9.685,9.685,0,0,1,7.265-1.279A5.6,5.6,0,0,1,84.4,84.867a4.587,4.587,0,0,1,2.174-.486c2.047.051,4.528,1.714,6.216,2.916-2.916,10.873-5.756,21.464-8.672,32.336h5.168v.026c2.1-.281,2.072-1.2,2.481-2.814A52.1,52.1,0,0,1,93.3,110.5a19.643,19.643,0,0,1,3.53-5.423h0A23.327,23.327,0,0,0,79.381,66.32Z" transform="translate(-21.591 -33.523)"/><path class="ap" d="M79.6,74.407a4.042,4.042,0,0,0-1.561.307c.026.026.026.051.051.077a5.33,5.33,0,0,1,1.1,3.044,3.569,3.569,0,0,1-.767,2.354,1.988,1.988,0,0,1-1.816.844.814.814,0,0,1-.23-.077,2.487,2.487,0,0,1-1.33-1.765,4.411,4.411,0,0,1,.1-2.635,4.344,4.344,0,0,1,1.561-2.021A4.463,4.463,0,0,0,74.9,73.486,8.9,8.9,0,0,0,68.6,74.509a3.793,3.793,0,0,1,.793,1,4.432,4.432,0,0,1-.716,4.963,2.37,2.37,0,0,1-3.735-.87,3.537,3.537,0,0,1,.179-2.558,6.292,6.292,0,0,1,1.97-2.507,4.092,4.092,0,0,0-2.456-.307c-1.509.281-2.968,1.561-4.119,2.635l8.6,32h6.5l8.7-32.413C82.879,75.481,81.139,74.432,79.6,74.407Z" transform="translate(-14.625 -22.705)"/><path class="ao" d="M62.794,76.274a2.857,2.857,0,0,0-.179,1.944,1.532,1.532,0,0,0,2.4.537,3.285,3.285,0,0,0,.87-2.533,3.163,3.163,0,0,0-.358-1.381,3.038,3.038,0,0,0-.793-.921c-.051.026-.077.051-.128.077A5.625,5.625,0,0,0,62.794,76.274Z" transform="translate(-11.527 -21.681)"/><rect class="aq" width="19.877" height="1.74" transform="translate(47.839 94.783)"/><path class="aq" d="M61.28,92.294a1.136,1.136,0,0,0,1.126,1.126H80.032a1.136,1.136,0,0,0,1.126-1.126V91.91H61.28Z" transform="translate(-13.441 6.352)"/><rect class="aq" width="19.877" height="1.74" transform="translate(47.839 87.85)"/><rect class="aq" width="19.877" height="1.74" transform="translate(47.839 91.329)"/><path class="ar" d="M81.132,87.16H61.28V88.9H81.158V87.16Z" transform="translate(-13.441 -1.05)"/><rect class="ar" width="19.877" height="1.74" transform="translate(47.839 89.589)"/><rect class="ar" width="19.877" height="1.74" transform="translate(47.839 93.043)"/><rect class="ar" width="19.877" height="1.74" transform="translate(47.839 96.522)"/><path class="ar" d="M61.72,92.5l4.144,4.144h9.363L79.372,92.5H61.72Z" transform="translate(-12.755 7.271)"/><path class="as" d="M61.445,77.378c1.177-1.1,2.609-2.354,4.119-2.635a4.092,4.092,0,0,1,2.456.307,6.473,6.473,0,0,0-1.97,2.507,3.546,3.546,0,0,0-.179,2.558,2.357,2.357,0,0,0,3.735.87,4.431,4.431,0,0,0,.716-4.963,3.336,3.336,0,0,0-.793-1A8.77,8.77,0,0,1,75.822,74a4.463,4.463,0,0,1,1.816,1.049,4.186,4.186,0,0,0-1.561,2.021,4.418,4.418,0,0,0-.1,2.635,2.487,2.487,0,0,0,1.33,1.765l.23.077a1.988,1.988,0,0,0,1.816-.844,3.57,3.57,0,0,0,.767-2.354,5.724,5.724,0,0,0-1.1-3.044c-.026-.026-.026-.051-.051-.077a4.235,4.235,0,0,1,1.561-.307c1.535.026,3.249,1.1,4.63,2l-8.7,32.413H78.1c2.916-10.872,5.756-21.464,8.672-32.336-1.688-1.2-4.17-2.865-6.217-2.916a4.655,4.655,0,0,0-2.174.486,5.875,5.875,0,0,0-2.328-1.407,9.783,9.783,0,0,0-7.265,1.279,5.078,5.078,0,0,0-3.377-.588c-2.149.409-4.042,2.3-5.5,3.889,2.916,10.847,5.551,20.747,8.468,31.594h1.637ZM78.38,75.843a4.885,4.885,0,0,1,.947,2.558,2.655,2.655,0,0,1-.588,1.791,1.187,1.187,0,0,1-1.023.537.094.094,0,0,1-.077-.026c-.409-.153-.691-.793-.793-1.2a3.628,3.628,0,0,1,.077-2.149,3.517,3.517,0,0,1,1.356-1.688A.259.259,0,0,0,78.38,75.843Zm-9.593-.333a3.038,3.038,0,0,1,.793.921,3.163,3.163,0,0,1,.358,1.381,3.452,3.452,0,0,1-.87,2.533,1.532,1.532,0,0,1-2.4-.537,2.7,2.7,0,0,1,.179-1.944,5.91,5.91,0,0,1,1.842-2.277A.353.353,0,0,0,68.787,75.511Z" transform="translate(-15.576 -23.271)"/><path class="as" d="M66.916,80.387,66.762,53.5l-2.072.026.179,26.861Z" transform="translate(-8.127 -53.5)"/><path class="as" d="M86.134,57.193,84.343,56.17,71.04,79.527l1.791,1.023Z" transform="translate(1.767 -49.34)"/><path class="as" d="M77.309,80.039l23.178-13.559L99.438,64.69,76.26,78.274Z" transform="translate(9.901 -36.063)"/><path class="as" d="M77.246,79.986l26.861-.153V77.76l-26.887.153Z" transform="translate(11.397 -15.697)"/><path class="as" d="M68.474,79.527,55.171,56.17,53.38,57.193l13.3,23.357Z" transform="translate(-25.751 -49.34)"/><path class="as" d="M68.817,78.264,45.639,64.68,44.59,66.471,67.768,80.055Z" transform="translate(-39.448 -36.079)"/><path class="as" d="M69.477,77.913,42.59,77.76v2.047l26.861.179Z" transform="translate(-42.564 -15.697)"/></g></g></g></svg>